<svg xmlns="http://www.w3.org/2000/svg" width="19.236" height="21.385" viewBox="0 0 19.236 21.385"><defs><style>.a{fill:#fff;}</style></defs><g transform="translate(-25.5)"><g transform="translate(25.5)"><path class="a" d="M41.619,7.522a3,3,0,0,0-2.149.86L31.84,3.976a1.829,1.829,0,0,0,.107-.752,3.224,3.224,0,0,0-6.448,0,3.166,3.166,0,0,0,3.224,3.224,3,3,0,0,0,2.149-.86L38.5,9.994a1.829,1.829,0,0,0-.107.752,1.829,1.829,0,0,0,.107.752l-7.63,4.513a3,3,0,0,0-2.149-.86,3.116,3.116,0,1,0,3.116,3.116,2.1,2.1,0,0,0-.107-.752L39.363,13a3,3,0,0,0,2.149.86,3.166,3.166,0,0,0,3.224-3.224A2.991,2.991,0,0,0,41.619,7.522Z" transform="translate(-25.5)"/></g></g></svg>